/* XPM */
static char * title4_inactive_xpm[] = {
"5 24 5 1",
" 	c None",
".	c #000000 s active_border_color",
"+	c #FFFFFF s inactive_hilight_2",
"@	c #D8D8D8 s inactive_color_2",
"a	c #B2B2B2 s inactive_color_2",
".....",
"+++++",
"@@@@@",
"@@@@@",
"@@@@@",
"aaaaa",
"aaaaa",
"aaaaa",
"aaaaa",
"aaaaa",
"aaaaa",
"aaaaa",
"aaaaa",
"aaaaa",
"aaaaa",
"aaaaa",
"aaaaa",
"aaaaa",
"aaaaa",
"aaaaa",
"aaaaa",
"aaaaa",
"aaaaa",
"aaaaa"};
