/* XPM */
static char * stick_active_xpm[] = {
"20 25 4 1",
" 	c None",
".	c #0A5E89 s active_color_2",
"+	c #007EBF s active_color_2",
"@	c #FFFFFF s active_text_color",
"                    ",
"                    ",
"                    ",
"                    ",
"                    ",
"....................",
"..++++++++++++++++..",
".+................+.",
".+................+.",
".+................+.",
".+................+.",
".+......@@@@......+.",
".+.....@....@.....+.",
".+....@......@....+.",
".+....@......@....+.",
".+....@......@....+.",
".+....@......@....+.",
".+.....@....@.....+.",
".+......@@@@......+.",
".+................+.",
".+................+.",
".+................+.",
".+................+.",
"..++++++++++++++++..",
"...................."};
