/* XPM */
static char * stick_pressed_xpm[] = {
"20 25 5 1",
" 	c None",
".	c #0A5E89 s active_color_2",
"+	c #143D52 s active_color_2",
"@	c #007EBF s active_color_2",
"#	c #FFFFFF s active_text_color",
"                    ",
"                    ",
"                    ",
"                    ",
"                    ",
"..+++++++++++++++...",
".+++++++++++++++++..",
"++++...............@",
"+++................@",
"++.................@",
"++.................@",
"++.................@",
"++.......####......@",
"++......#....#.....@",
"++.....#......#....@",
"++.....#......#....@",
"++.....#......#....@",
"++.....#......#....@",
"++......#....#.....@",
"++.......####......@",
"++.................@",
"++................@@",
".+................@@",
"................@@@.",
"..@@@@@@@@@@@@@@@@.."};
